<svg width="40" height="40" viewBox="0 0 40 40" fill="none" xmlns="http://www.w3.org/2000/svg">
<g clip-path="url(#clip0_177_240)">
<path d="M33.8462 15H32.3077V10.23C32.3077 4.49375 27.2 0 19.9431 0C12.6569 0 7.69231 4.58875 7.69231 10.23V15H6.15385C2.76 15 0 17.2425 0 20V35C0 37.7575 2.76 40 6.15385 40H33.8462C37.24 40 40 37.7575 40 35V20C40 17.2425 37.24 15 33.8462 15ZM10.7692 10.23C10.7692 5.96875 14.3538 2.5 19.9431 2.5C25.4754 2.5 29.2308 5.895 29.2308 10.23V15H10.7692V10.23ZM36.9231 35C36.9231 36.3775 35.5415 37.5 33.8462 37.5H6.15385C4.45692 37.5 3.07692 36.3775 3.07692 35V20C3.07692 18.6225 4.45692 17.5 6.15385 17.5H33.8462C35.5415 17.5 36.9231 18.6225 36.9231 20V35ZM20 22.5C18.3015 22.5 16.9231 23.6187 16.9231 25C16.9231 25.9225 17.5462 26.72 18.4615 27.1537V31.25C18.4615 31.94 19.1508 32.5 20 32.5C20.8492 32.5 21.5385 31.94 21.5385 31.25V27.1537C22.4538 26.7212 23.0769 25.9225 23.0769 25C23.0769 23.6187 21.7 22.5 20 22.5Z" fill="url(#paint0_linear_177_240)"/>
</g>
<defs>
<linearGradient id="paint0_linear_177_240" x1="-3.9657e-07" y1="20.2667" x2="40" y2="20.2667" gradientUnits="userSpaceOnUse">
<stop stop-color="#00A46E"/>
<stop offset="1" stop-color="#00B5DF"/>
</linearGradient>
<clipPath id="clip0_177_240">
<rect width="40" height="40" fill="white"/>
</clipPath>
</defs>
</svg>
