<svg width="40" height="40" viewBox="0 0 40 40" fill="none" xmlns="http://www.w3.org/2000/svg">
<path d="M18.5168 36.5553C18.9872 36.788 19.2225 36.9045 19.5544 36.9648C19.8122 37.0117 20.1878 37.0117 20.4456 36.9648C20.7775 36.9045 21.0128 36.788 21.4832 36.5553C25.6227 34.5066 37 28.0713 37 19.2234V9.48937C37 8.48365 37 7.98078 36.7718 7.59751C36.5695 7.25771 36.2535 6.9865 35.8553 6.81087C35.4062 6.61276 34.8034 6.60672 33.5974 6.59463C27.2828 6.53128 23.6414 6.08896 20 3C16.3586 6.08896 12.7172 6.53128 6.40255 6.59463C5.19668 6.60672 4.59373 6.61276 4.14463 6.81087C3.74649 6.9865 3.4305 7.25771 3.2282 7.59751C3 7.98078 3 8.48365 3 9.48937V19.2234C3 28.0713 14.3772 34.5066 18.5168 36.5553Z" stroke="url(#paint0_linear_177_235)" stroke-width="3" stroke-linecap="round" stroke-linejoin="round"/>
<defs>
<linearGradient id="paint0_linear_177_235" x1="3" y1="20.2267" x2="37" y2="20.2267" gradientUnits="userSpaceOnUse">
<stop stop-color="#00A46E"/>
<stop offset="1" stop-color="#00B5DF"/>
</linearGradient>
</defs>
</svg>
